<?xml version="1.0" encoding="utf-8"?>
<!-- Generator: Adobe Illustrator 16.0.0, SVG Export Plug-In . SVG Version: 6.00 Build 0)  -->
<!DOCTYPE svg PUBLIC "-//W3C//DTD SVG 1.1//EN" "http://www.w3.org/Graphics/SVG/1.1/DTD/svg11.dtd">
<svg version="1.1" id="Capa_1" xmlns="http://www.w3.org/2000/svg" xmlns:xlink="http://www.w3.org/1999/xlink" x="0px" y="0px"
	 width="550.442px" height="100px" viewBox="0 0 550.442 100" enable-background="new 0 0 550.442 100" xml:space="preserve">
<g>
	<defs>
		<path id="SVGID_1_" d="M467.825,70.916l8.836-41.856c0.389-1.656,1.293-3.076,2.661-4.239c1.396-1.162,2.946-1.73,4.599-1.73
			h23.85c1.679,0,2.972,0.568,3.876,1.73c0.93,1.163,1.188,2.558,0.774,4.239l-1.318,5.967h29.816l2.637-11.911
			c0.465-2.456,0.465-4.781,0-6.951c-0.491-2.195-1.345-4.083-2.637-5.658c-1.266-1.602-2.894-2.869-4.884-3.825
			c-1.988-0.956-4.211-1.42-6.665-1.42h-59.633c-2.454,0-4.884,0.465-7.286,1.42c-2.377,0.956-4.548,2.249-6.485,3.825
			c-1.938,1.602-3.618,3.488-5.014,5.684c-1.395,2.171-2.325,4.497-2.79,6.976l-11.471,53.715c-0.542,2.456-0.596,4.781-0.103,6.951
			c0.465,2.172,1.342,4.057,2.608,5.66c1.291,1.574,2.919,2.842,4.909,3.797c1.988,0.956,4.211,1.421,6.667,1.421h59.632
			c2.455,0,4.883-0.465,7.26-1.421c2.404-0.955,4.573-2.223,6.511-3.825c1.939-1.575,3.618-3.46,5.014-5.657
			c1.396-2.17,2.351-4.496,2.92-6.951l2.505-11.91h-29.815l-1.188,5.969c-0.414,1.68-1.293,3.074-2.688,4.237
			c-1.396,1.163-2.919,1.729-4.598,1.729h-23.85c-1.679,0-2.971-0.566-3.876-1.729C467.695,73.99,467.438,72.57,467.825,70.916
			 M428.578,58.901l3.822-17.829h-59.735l-3.823,17.829H428.578z M363.003,58.953l6.329-29.893c0.389-1.656,1.293-3.076,2.66-4.239
			c1.396-1.162,2.946-1.73,4.6-1.73h59.634l3.695-17.828h-77.514c-2.453,0-4.883,0.465-7.285,1.42
			c-2.377,0.956-4.549,2.249-6.485,3.825c-1.938,1.602-3.618,3.488-5.014,5.684c-1.396,2.171-2.325,4.497-2.79,6.976l-11.472,53.715
			c-0.542,2.456-0.595,4.781-0.103,6.951c0.465,2.172,1.342,4.057,2.609,5.66c1.291,1.574,2.918,2.842,4.909,3.797
			c1.988,0.956,4.211,1.421,6.667,1.421h77.511l3.825-17.829h-59.634c-1.679,0-2.972-0.566-3.876-1.729s-1.163-2.583-0.774-4.237
			L363.003,58.953z M250.892,94.712h29.947l15.27-71.621h32.788l3.695-17.828h-95.394l-3.695,17.828h32.659L250.892,94.712z
			 M213.919,58.901l3.823-17.829h-59.736l-3.823,17.829H213.919z M148.344,58.953l6.33-29.893c0.388-1.656,1.292-3.076,2.66-4.239
			c1.395-1.162,2.946-1.73,4.6-1.73h59.633l3.695-17.828h-77.513c-2.453,0-4.883,0.465-7.285,1.42
			c-2.377,0.956-4.548,2.249-6.485,3.825c-1.938,1.602-3.618,3.488-5.014,5.684c-1.395,2.171-2.325,4.497-2.79,6.976l-11.472,53.715
			c-0.542,2.456-0.595,4.781-0.103,6.951c0.465,2.172,1.342,4.057,2.609,5.66c1.291,1.574,2.918,2.842,4.909,3.797
			c1.989,0.956,4.211,1.421,6.667,1.421h77.511l3.825-17.829h-59.634c-1.679,0-2.972-0.566-3.876-1.729
			c-0.905-1.163-1.163-2.583-0.774-4.237L148.344,58.953z M3.576,94.712h29.816l15.245-71.621h29.816
			c1.679,0,2.972,0.568,3.876,1.73c0.93,1.163,1.188,2.583,0.774,4.239L74.163,71.02c-0.386,1.678-1.291,3.074-2.686,4.186
			c-1.395,1.111-2.869,1.678-4.469,1.678H43.158l-3.823,17.829h41.752c2.456,0,4.883-0.465,7.26-1.421
			c2.404-0.955,4.574-2.248,6.511-3.825c1.939-1.601,3.618-3.487,5.013-5.657c1.396-2.195,2.351-4.521,2.92-6.977l11.446-53.69
			c0.465-2.454,0.465-4.779,0-6.976c-0.491-2.17-1.344-4.056-2.637-5.658c-1.265-1.577-2.893-2.869-4.883-3.825
			c-1.988-0.956-4.211-1.42-6.665-1.42H22.54L3.576,94.712z"/>
	</defs>
	<clipPath id="SVGID_2_">
		<use xlink:href="#SVGID_1_"  overflow="visible"/>
	</clipPath>
	<linearGradient id="SVGID_3_" gradientUnits="userSpaceOnUse" x1="270.7266" y1="78.042" x2="274.8065" y2="40.772">
		<stop  offset="0" style="stop-color:#001a36"/>
		<stop  offset="1" style="stop-color:#005094"/>
	</linearGradient>
	<rect x="3.576" y="5.263" clip-path="url(#SVGID_2_)" fill="url(#SVGID_3_)" width="540.445" height="89.449"/>
</g>
</svg>
