<?xml version="1.0" encoding="utf-8"?>
<!-- Generator: Adobe Illustrator 16.0.0, SVG Export Plug-In . SVG Version: 6.00 Build 0)  -->
<!DOCTYPE svg PUBLIC "-//W3C//DTD SVG 1.1//EN" "http://www.w3.org/Graphics/SVG/1.1/DTD/svg11.dtd">
<svg version="1.1" id="Capa_1" xmlns="http://www.w3.org/2000/svg" xmlns:xlink="http://www.w3.org/1999/xlink" x="0px" y="0px"
	 width="707.965px" height="412.979px" viewBox="0 0 707.965 412.979" enable-background="new 0 0 707.965 412.979"
	 xml:space="preserve">
<g>
	<defs>
		<path id="SVGID_1_" d="M471.241,136.672l8.836-41.856c0.389-1.656,1.293-3.076,2.661-4.239c1.396-1.162,2.946-1.73,4.599-1.73
			h23.85c1.679,0,2.972,0.568,3.876,1.73c0.93,1.163,1.188,2.558,0.774,4.239l-1.318,5.967h29.816l2.637-11.911
			c0.465-2.456,0.465-4.781,0-6.951c-0.491-2.195-1.345-4.083-2.637-5.658c-1.266-1.602-2.894-2.869-4.884-3.825
			c-1.988-0.956-4.211-1.42-6.665-1.42h-59.633c-2.454,0-4.884,0.465-7.286,1.42c-2.377,0.956-4.548,2.249-6.485,3.825
			c-1.938,1.602-3.618,3.488-5.014,5.684c-1.395,2.171-2.325,4.497-2.79,6.976l-11.471,53.715c-0.542,2.456-0.596,4.781-0.103,6.951
			c0.465,2.171,1.342,4.057,2.608,5.66c1.291,1.575,2.919,2.842,4.909,3.797c1.988,0.956,4.211,1.421,6.667,1.421h59.632
			c2.455,0,4.883-0.465,7.26-1.421c2.404-0.956,4.573-2.223,6.511-3.825c1.939-1.575,3.618-3.46,5.014-5.658
			c1.396-2.169,2.351-4.495,2.92-6.95l2.505-11.911h-29.815l-1.188,5.969c-0.414,1.679-1.293,3.074-2.688,4.237
			c-1.396,1.163-2.919,1.73-4.598,1.73h-23.85c-1.679,0-2.971-0.567-3.876-1.73C471.111,139.747,470.854,138.326,471.241,136.672
			 M431.994,124.657l3.822-17.829h-59.735l-3.823,17.829H431.994z M366.419,124.708l6.329-29.893
			c0.389-1.656,1.293-3.076,2.66-4.239c1.396-1.162,2.946-1.73,4.6-1.73h59.634l3.695-17.828h-77.514
			c-2.453,0-4.883,0.465-7.285,1.42c-2.377,0.956-4.549,2.249-6.485,3.825c-1.938,1.602-3.618,3.488-5.014,5.684
			c-1.395,2.171-2.325,4.497-2.791,6.976l-11.471,53.715c-0.542,2.456-0.595,4.781-0.102,6.951c0.465,2.171,1.342,4.057,2.609,5.66
			c1.291,1.575,2.918,2.842,4.909,3.797c1.988,0.956,4.211,1.421,6.667,1.421h77.511l3.825-17.829h-59.634
			c-1.679,0-2.972-0.567-3.876-1.73s-1.163-2.583-0.774-4.237L366.419,124.708z M254.308,160.468h29.946l15.271-71.621h32.788
			l3.695-17.828h-95.394l-3.695,17.828h32.659L254.308,160.468z M217.335,124.657l3.823-17.829h-59.736l-3.823,17.829H217.335z
			 M151.76,124.708l6.33-29.893c0.388-1.656,1.292-3.076,2.66-4.239c1.395-1.162,2.946-1.73,4.6-1.73h59.633l3.695-17.828h-77.513
			c-2.453,0-4.883,0.465-7.285,1.42c-2.377,0.956-4.548,2.249-6.485,3.825c-1.938,1.602-3.618,3.488-5.014,5.684
			c-1.395,2.171-2.325,4.497-2.79,6.976l-11.472,53.715c-0.542,2.456-0.595,4.781-0.103,6.951c0.465,2.171,1.342,4.057,2.609,5.66
			c1.291,1.575,2.918,2.842,4.909,3.797c1.989,0.956,4.211,1.421,6.667,1.421h77.511l3.825-17.829h-59.634
			c-1.679,0-2.972-0.567-3.876-1.73c-0.905-1.163-1.163-2.583-0.774-4.237L151.76,124.708z M6.992,160.468h29.816l15.245-71.621
			h29.816c1.679,0,2.972,0.568,3.876,1.73c0.93,1.163,1.188,2.583,0.774,4.239l-8.941,41.959c-0.386,1.679-1.291,3.074-2.686,4.186
			c-1.395,1.111-2.869,1.679-4.469,1.679H46.574l-3.823,17.829h41.752c2.456,0,4.883-0.465,7.26-1.421
			c2.404-0.956,4.574-2.249,6.511-3.825c1.939-1.6,3.618-3.488,5.013-5.658c1.396-2.195,2.351-4.521,2.92-6.976l11.446-53.69
			c0.465-2.454,0.465-4.779,0-6.976c-0.491-2.17-1.344-4.056-2.637-5.658c-1.265-1.577-2.893-2.869-4.883-3.825
			c-1.988-0.956-4.211-1.42-6.665-1.42H25.956L6.992,160.468z"/>
	</defs>
	<clipPath id="SVGID_2_">
		<use xlink:href="#SVGID_1_"  overflow="visible"/>
	</clipPath>
	<linearGradient id="SVGID_3_" gradientUnits="userSpaceOnUse" x1="274.1431" y1="143.7983" x2="278.2231" y2="106.5282">
		<stop  offset="0" style="stop-color:#D56B2B"/>
		<stop  offset="1" style="stop-color:#DC883D"/>
	</linearGradient>
	<rect x="6.992" y="71.019" clip-path="url(#SVGID_2_)" fill="url(#SVGID_3_)" width="540.445" height="89.449"/>
</g>
<g>
	<defs>
		<path id="SVGID_4_" d="M587.213,256.75l13.822-65.653h-29.79l-15.166,71.621c-0.542,2.455-0.596,4.78-0.103,6.95
			c0.465,2.172,1.342,4.058,2.608,5.659c1.291,1.575,2.919,2.842,4.909,3.798c1.988,0.956,4.211,1.421,6.667,1.421h59.632
			c2.455,0,4.883-0.465,7.26-1.421c2.404-0.956,4.574-2.248,6.511-3.825c1.939-1.6,3.618-3.488,5.014-5.657
			c1.395-2.195,2.351-4.521,2.92-6.977l11.882-56.167c-9.57,6.095-20.711,9.05-32.05,10.684l-8.331,39.567
			c-0.414,1.68-1.293,3.074-2.688,4.237c-1.395,1.162-2.918,1.73-4.598,1.73h-23.849c-1.679,0-2.972-0.568-3.876-1.73
			C587.083,259.824,586.825,258.43,587.213,256.75 M444.952,280.546h29.815l15.245-71.621h29.816c1.679,0,2.971,0.567,3.876,1.73
			c0.93,1.162,1.188,2.583,0.774,4.265l-1.318,5.992c-0.387,1.681-1.266,3.102-2.609,4.265s-2.867,1.73-4.522,1.73h-23.978
			l-3.822,17.828h23.977c1.68,0,2.972,0.567,3.876,1.73c0.905,1.162,1.163,2.558,0.774,4.238l-6.329,29.842h29.815l6.692-31.367
			c0.542-2.713,0.517-5.218-0.077-7.518c-0.595-2.3-1.654-4.239-3.152-5.839c2.223-1.681,4.108-3.67,5.657-5.97
			c1.551-2.3,2.637-4.806,3.281-7.518l2.869-13.358c0.466-2.454,0.466-4.779,0-6.977c-0.49-2.169-1.344-4.056-2.637-5.658
			c-1.265-1.577-2.893-2.869-4.883-3.825c-1.988-0.956-4.212-1.42-6.665-1.42h-77.514L444.952,280.546z M440.636,244.735
			l3.823-17.828h-59.736l-3.823,17.828H440.636z M375.061,244.787l6.33-29.894c0.388-1.655,1.292-3.076,2.66-4.238
			c1.396-1.163,2.946-1.73,4.6-1.73h59.634l3.695-17.828h-77.514c-2.454,0-4.883,0.465-7.285,1.42
			c-2.377,0.956-4.549,2.249-6.486,3.825c-1.937,1.602-3.618,3.488-5.013,5.683c-1.396,2.172-2.325,4.497-2.791,6.977
			l-11.471,53.716c-0.542,2.455-0.595,4.78-0.103,6.95c0.465,2.172,1.342,4.058,2.609,5.659c1.291,1.575,2.919,2.842,4.909,3.798
			c1.989,0.956,4.211,1.421,6.667,1.421h77.512l3.825-17.828h-59.634c-1.679,0-2.972-0.568-3.876-1.73
			c-0.905-1.163-1.163-2.584-0.775-4.237L375.061,244.787z M274.061,214.894c0.388-1.681,1.293-3.076,2.661-4.238
			c1.395-1.163,2.946-1.73,4.599-1.73h23.849c1.679,0,2.972,0.567,3.876,1.73c0.93,1.162,1.188,2.583,0.774,4.265l-3.797,17.931
			c-0.414,1.679-1.292,3.1-2.688,4.263c-1.395,1.162-2.92,1.731-4.599,1.731h-23.847l-3.695,17.827h41.727
			c2.481,0,4.883-0.466,7.288-1.421c2.376-0.956,4.546-2.222,6.483-3.823c1.964-1.603,3.618-3.488,5.013-5.659
			c1.395-2.196,2.326-4.521,2.816-6.977l6.434-29.815c0.465-2.454,0.465-4.779,0-6.977c-0.491-2.169-1.344-4.056-2.637-5.658
			c-1.265-1.602-2.893-2.869-4.884-3.825c-1.988-0.956-4.211-1.42-6.665-1.42h-59.634c-2.454,0-4.883,0.465-7.286,1.42
			c-2.376,0.956-4.548,2.249-6.485,3.825c-1.937,1.602-3.618,3.488-5.013,5.658c-1.395,2.197-2.325,4.522-2.791,6.977
			l-15.269,71.569h29.816L274.061,214.894z"/>
	</defs>
	<clipPath id="SVGID_5_">
		<use xlink:href="#SVGID_4_"  overflow="visible"/>
	</clipPath>
	<linearGradient id="SVGID_6_" gradientUnits="userSpaceOnUse" x1="443.0273" y1="263.6904" x2="448.0873" y2="226.6604">
		<stop  offset="0" style="stop-color:#D56B2B"/>
		<stop  offset="1" style="stop-color:#DC883D"/>
	</linearGradient>
	<rect x="230.293" y="191.097" clip-path="url(#SVGID_5_)" fill="url(#SVGID_6_)" width="433.086" height="89.449"/>
</g>
<g>
	<defs>
		<path id="SVGID_7_" d="M615.058,211.472c43.337-30.844,28.375-62.407,86.957-60.3
			C666.361,188.758,674.574,207.259,615.058,211.472"/>
	</defs>
	<clipPath id="SVGID_8_">
		<use xlink:href="#SVGID_7_"  overflow="visible"/>
	</clipPath>
	<linearGradient id="SVGID_9_" gradientUnits="userSpaceOnUse" x1="683.5908" y1="161.5205" x2="619.7911" y2="209.2603">
		<stop  offset="0" style="stop-color:#99CCF1"/>
		<stop  offset="1" style="stop-color:#3168A7"/>
	</linearGradient>
	<rect x="615.058" y="149.065" clip-path="url(#SVGID_8_)" fill="url(#SVGID_9_)" width="86.957" height="62.407"/>
</g>
<path fill="#262424" d="M659.742,331.689l-1.256-5.12l-2.737,5.12H659.742z M657.762,322.161h2.473l3.895,15.619h-2.846
	l-0.832-3.328h-6.18l-1.781,3.328h-3.153L657.762,322.161z M641.032,335.018l1.77,0.065c0.891,0,1.537-0.174,1.943-0.522
	c0.406-0.347,0.609-0.822,0.609-1.429c0-0.438-0.127-0.834-0.377-1.181c-0.25-0.349-0.585-0.591-1.001-0.733
	c-0.418-0.146-1.214-0.217-2.396-0.225L641.032,335.018z M641.939,328.36h0.529c0.79,0,1.326-0.057,1.608-0.173
	c0.284-0.116,0.522-0.333,0.719-0.652c0.199-0.315,0.298-0.668,0.298-1.057c0-0.362-0.089-0.67-0.262-0.932
	c-0.178-0.261-0.406-0.438-0.688-0.528c-0.283-0.091-0.86-0.138-1.729-0.138L641.939,328.36z M639.828,322.161h2.44
	c1.487,0,2.589,0.159,3.311,0.479c0.721,0.319,1.302,0.813,1.744,1.486c0.443,0.672,0.664,1.396,0.664,2.175
	c0,0.649-0.156,1.266-0.47,1.843c-0.315,0.576-0.765,1.059-1.355,1.45c1.39,0.968,2.085,2.259,2.085,3.865
	c0,0.833-0.221,1.598-0.666,2.292c-0.443,0.695-0.991,1.206-1.644,1.537c-0.652,0.329-1.599,0.492-2.832,0.492h-5.409
	L639.828,322.161z M633.632,322.161h2.862l-2.176,15.619H631.5L633.632,322.161z M622.581,322.161h9.53l-0.341,2.784h-3.238
	l-1.756,12.835h-2.91l1.754-12.835h-3.401L622.581,322.161z M621.253,324.341l-2.141,1.888c-0.881-1.146-1.704-1.719-2.461-1.719
	c-0.379,0-0.694,0.112-0.94,0.333c-0.25,0.227-0.372,0.495-0.372,0.806c0,0.29,0.112,0.613,0.341,0.968
	c0.229,0.354,0.916,1.136,2.069,2.35c0.608,0.646,1.013,1.104,1.204,1.371c0.465,0.623,0.794,1.206,0.997,1.748
	c0.203,0.544,0.305,1.094,0.305,1.653c0,1.254-0.447,2.31-1.338,3.157c-0.896,0.852-2.037,1.277-3.435,1.277
	c-2.128,0-3.86-1.009-5.198-3.029l2.254-1.812c0.911,1.384,1.891,2.078,2.948,2.078c0.505,0,0.929-0.164,1.273-0.491
	c0.345-0.325,0.515-0.718,0.515-1.179c0-0.362-0.105-0.727-0.315-1.105c-0.211-0.372-0.809-1.084-1.796-2.124
	c-1.042-1.094-1.732-1.926-2.06-2.483c-0.438-0.759-0.658-1.501-0.658-2.232c0-0.962,0.315-1.829,0.946-2.59
	c0.794-0.957,1.866-1.437,3.212-1.437C618.456,321.769,620.005,322.624,621.253,324.341z M601.808,322.161h8.419l-0.358,2.763h-5.49
	l-0.441,3.241h5.51l-0.354,2.741h-5.53l-0.569,4.154h5.563l-0.357,2.72h-8.522L601.808,322.161z M598.629,324.341l-2.14,1.888
	c-0.881-1.146-1.705-1.719-2.461-1.719c-0.379,0-0.694,0.112-0.94,0.333c-0.25,0.227-0.372,0.495-0.372,0.806
	c0,0.29,0.111,0.613,0.34,0.968c0.229,0.354,0.917,1.136,2.069,2.35c0.609,0.646,1.014,1.104,1.204,1.371
	c0.466,0.623,0.795,1.206,0.998,1.748c0.202,0.544,0.305,1.094,0.305,1.653c0,1.254-0.447,2.31-1.338,3.157
	c-0.896,0.852-2.038,1.277-3.435,1.277c-2.129,0-3.86-1.009-5.198-3.029l2.254-1.812c0.91,1.384,1.89,2.078,2.948,2.078
	c0.504,0,0.928-0.164,1.272-0.491c0.346-0.325,0.515-0.718,0.515-1.179c0-0.362-0.104-0.727-0.315-1.105
	c-0.211-0.372-0.808-1.084-1.795-2.124c-1.043-1.094-1.732-1.926-2.06-2.483c-0.438-0.759-0.658-1.501-0.658-2.232
	c0-0.962,0.315-1.829,0.946-2.59c0.794-0.957,1.866-1.437,3.212-1.437C595.833,321.769,597.382,322.624,598.629,324.341z
	 M579.185,322.161h8.419l-0.358,2.763h-5.491l-0.44,3.241h5.51l-0.354,2.741h-5.53l-0.569,4.154h5.563l-0.357,2.72h-8.523
	L579.185,322.161z M566.716,324.902l-1.385,10.137h0.968c1.487,0,2.563-0.122,3.229-0.37c0.936-0.354,1.687-0.96,2.252-1.815
	c0.57-0.857,0.852-1.915,0.852-3.177c0-1.03-0.198-1.896-0.597-2.593c-0.396-0.7-0.958-1.236-1.688-1.612
	c-0.725-0.38-1.688-0.569-2.893-0.569H566.716z M564.127,322.161h2.482c2.326,0,4.058,0.275,5.193,0.823
	c1.135,0.546,2.056,1.409,2.767,2.584c0.709,1.177,1.066,2.532,1.066,4.069c0,1.576-0.379,3.027-1.136,4.348
	c-0.755,1.318-1.704,2.283-2.854,2.889c-1.148,0.605-2.749,0.906-4.788,0.906h-4.864L564.127,322.161z M545.636,340.565
	l7.033-18.861h2.063l-7.033,18.861H545.636z M533.149,331.689l-1.255-5.12l-2.737,5.12H533.149z M531.169,322.161h2.474
	l3.894,15.619h-2.846l-0.831-3.328h-6.181l-1.781,3.328h-3.153L531.169,322.161z M514.44,335.018l1.77,0.065
	c0.891,0,1.537-0.174,1.943-0.522c0.405-0.347,0.608-0.822,0.608-1.429c0-0.438-0.126-0.834-0.376-1.181
	c-0.251-0.349-0.586-0.591-1.002-0.733c-0.418-0.146-1.214-0.217-2.396-0.225L514.44,335.018z M515.347,328.36h0.53
	c0.79,0,1.326-0.057,1.607-0.173c0.284-0.116,0.522-0.333,0.72-0.652c0.199-0.315,0.298-0.668,0.298-1.057
	c0-0.362-0.089-0.67-0.263-0.932c-0.177-0.261-0.406-0.438-0.688-0.528c-0.284-0.091-0.861-0.138-1.73-0.138L515.347,328.36z
	 M513.235,322.161h2.44c1.487,0,2.589,0.159,3.311,0.479s1.303,0.813,1.744,1.486c0.443,0.672,0.664,1.396,0.664,2.175
	c0,0.649-0.155,1.266-0.469,1.843c-0.315,0.576-0.765,1.059-1.356,1.45c1.39,0.968,2.085,2.259,2.085,3.865
	c0,0.833-0.221,1.598-0.666,2.292c-0.443,0.695-0.991,1.206-1.644,1.537c-0.652,0.329-1.598,0.492-2.832,0.492h-5.409
	L513.235,322.161z M507.04,322.161h2.861l-2.176,15.619h-2.818L507.04,322.161z M495.988,322.161h9.53l-0.341,2.784h-3.237
	l-1.757,12.835h-2.91l1.754-12.835h-3.401L495.988,322.161z M494.66,324.341l-2.14,1.888c-0.881-1.146-1.705-1.719-2.462-1.719
	c-0.378,0-0.693,0.112-0.939,0.333c-0.251,0.227-0.373,0.495-0.373,0.806c0,0.29,0.112,0.613,0.341,0.968
	c0.229,0.354,0.917,1.136,2.069,2.35c0.609,0.646,1.013,1.104,1.204,1.371c0.465,0.623,0.794,1.206,0.997,1.748
	c0.203,0.544,0.306,1.094,0.306,1.653c0,1.254-0.447,2.31-1.338,3.157c-0.896,0.852-2.038,1.277-3.435,1.277
	c-2.129,0-3.861-1.009-5.199-3.029l2.255-1.812c0.91,1.384,1.89,2.078,2.948,2.078c0.504,0,0.928-0.164,1.272-0.491
	c0.345-0.325,0.515-0.718,0.515-1.179c0-0.362-0.104-0.727-0.315-1.105c-0.211-0.372-0.809-1.084-1.796-2.124
	c-1.042-1.094-1.731-1.926-2.059-2.483c-0.438-0.759-0.658-1.501-0.658-2.232c0-0.962,0.315-1.829,0.945-2.59
	c0.795-0.957,1.866-1.437,3.213-1.437C491.863,321.769,493.413,322.624,494.66,324.341z M475.216,322.161h8.418l-0.358,2.763h-5.49
	l-0.441,3.241h5.51l-0.354,2.741h-5.529l-0.57,4.154h5.563l-0.356,2.72h-8.523L475.216,322.161z M456.898,340.565l7.033-18.861
	h2.063l-7.033,18.861H456.898z M437.15,322.161h2.534l5.64,10.62l1.45-10.62h2.88l-2.135,15.619h-2.511l-5.709-10.736l-1.466,10.736
	h-2.816L437.15,322.161z M427.756,316.462h3.425l-4.465,4.153h-2.084L427.756,316.462z M425.921,324.531
	c-1.121,0-2.144,0.272-3.072,0.813c-0.924,0.544-1.671,1.32-2.236,2.339c-0.569,1.015-0.852,2.067-0.852,3.147
	c0,1.283,0.395,2.371,1.183,3.264c0.786,0.891,1.917,1.338,3.394,1.338c1.706,0,3.16-0.604,4.356-1.806
	c1.192-1.204,1.792-2.666,1.792-4.389c0-1.425-0.42-2.562-1.262-3.419C428.383,324.959,427.283,324.531,425.921,324.531z
	 M426.035,321.769c2.148,0,3.92,0.69,5.317,2.071c1.395,1.382,2.091,3.132,2.091,5.254c0,1.628-0.412,3.165-1.235,4.604
	c-0.828,1.44-1.926,2.546-3.298,3.318c-1.369,0.772-2.941,1.157-4.724,1.157c-2.223,0-3.998-0.66-5.326-1.977
	c-1.33-1.316-1.992-3.049-1.992-5.199c0-2.443,0.792-4.544,2.38-6.298C421.018,322.744,423.28,321.769,426.035,321.769z
	 M412.65,322.161h2.861l-2.175,15.619h-2.818L412.65,322.161z M409.137,324.185l-2.136,1.979c-0.462-0.527-1.027-0.938-1.689-1.226
	c-0.668-0.286-1.39-0.428-2.17-0.428c-1.09,0-2.138,0.28-3.135,0.838c-1.001,0.56-1.777,1.299-2.336,2.215
	c-0.553,0.922-0.833,1.899-0.833,2.938c0,1.413,0.488,2.587,1.468,3.527c0.976,0.935,2.231,1.403,3.764,1.403
	c1.637,0,3.053-0.471,4.249-1.415l1.734,2.274c-1.777,1.253-3.837,1.882-6.178,1.882c-1.644,0-3.043-0.313-4.195-0.937
	c-1.149-0.62-2.077-1.537-2.775-2.745c-0.699-1.204-1.046-2.513-1.046-3.921c0-1.506,0.412-2.953,1.239-4.338
	c0.824-1.382,1.943-2.474,3.354-3.27c1.408-0.794,2.946-1.194,4.615-1.194C405.406,321.769,407.429,322.575,409.137,324.185z
	 M381.779,322.161h2.933l-1.314,9.637c-0.114,0.837-0.171,1.429-0.171,1.777c0,0.583,0.185,1.036,0.548,1.365
	c0.366,0.327,0.895,0.491,1.588,0.491c0.562,0,1.051-0.125,1.469-0.371c0.311-0.181,0.562-0.484,0.747-0.914
	c0.188-0.424,0.372-1.271,0.547-2.536l1.291-9.449h2.966l-1.272,9.321c-0.263,1.917-0.605,3.297-1.031,4.13
	c-0.424,0.834-1.036,1.473-1.84,1.908c-0.807,0.434-1.786,0.652-2.938,0.652c-1.559,0-2.773-0.414-3.645-1.244
	c-0.868-0.827-1.305-1.962-1.305-3.396c0-0.625,0.083-1.546,0.255-2.764L381.779,322.161z M370.45,335.018l1.77,0.065
	c0.891,0,1.537-0.174,1.943-0.522c0.406-0.347,0.609-0.822,0.609-1.429c0-0.438-0.126-0.834-0.377-1.181
	c-0.25-0.349-0.585-0.591-1.001-0.733c-0.418-0.146-1.214-0.217-2.396-0.225L370.45,335.018z M371.357,328.36h0.529
	c0.791,0,1.327-0.057,1.608-0.173c0.284-0.116,0.522-0.333,0.719-0.652c0.199-0.315,0.298-0.668,0.298-1.057
	c0-0.362-0.089-0.67-0.262-0.932c-0.178-0.261-0.406-0.438-0.688-0.528c-0.284-0.091-0.861-0.138-1.73-0.138L371.357,328.36z
	 M369.246,322.161h2.44c1.487,0,2.589,0.159,3.311,0.479c0.721,0.319,1.303,0.813,1.744,1.486c0.443,0.672,0.664,1.396,0.664,2.175
	c0,0.649-0.156,1.266-0.47,1.843c-0.314,0.576-0.764,1.059-1.355,1.45c1.39,0.968,2.085,2.259,2.085,3.865
	c0,0.833-0.221,1.598-0.666,2.292c-0.443,0.695-0.991,1.206-1.644,1.537c-0.652,0.329-1.599,0.492-2.832,0.492h-5.409
	L369.246,322.161z M363.051,322.161h2.861l-2.176,15.619h-2.818L363.051,322.161z M352.819,328.404
	c1.584-0.006,2.617-0.17,3.096-0.493c0.479-0.319,0.717-0.802,0.717-1.442c0-0.366-0.095-0.674-0.286-0.922
	c-0.192-0.246-0.471-0.42-0.833-0.519c-0.362-0.097-1.104-0.147-2.213-0.147L352.819,328.404z M350.736,322.161h2.709
	c1.671,0,2.85,0.146,3.531,0.436c0.848,0.362,1.49,0.863,1.922,1.503c0.432,0.643,0.648,1.403,0.648,2.282
	c0,1.084-0.321,2.012-0.964,2.787c-0.646,0.776-1.618,1.32-2.919,1.625l3.411,6.986h-3.034l-3.325-6.809h-0.25l-0.929,6.809h-2.932
	L350.736,322.161z M339.381,322.161h9.53l-0.341,2.784h-3.238l-1.756,12.835h-2.911l1.754-12.835h-3.401L339.381,322.161z
	 M338.053,324.341l-2.141,1.888c-0.881-1.146-1.705-1.719-2.461-1.719c-0.378,0-0.694,0.112-0.94,0.333
	c-0.25,0.227-0.373,0.495-0.373,0.806c0,0.29,0.112,0.613,0.341,0.968c0.229,0.354,0.916,1.136,2.069,2.35
	c0.608,0.646,1.013,1.104,1.204,1.371c0.465,0.623,0.794,1.206,0.997,1.748c0.203,0.544,0.305,1.094,0.305,1.653
	c0,1.254-0.447,2.31-1.338,3.157c-0.896,0.852-2.038,1.277-3.435,1.277c-2.128,0-3.86-1.009-5.198-3.029l2.254-1.812
	c0.91,1.384,1.89,2.078,2.948,2.078c0.505,0,0.929-0.164,1.273-0.491c0.345-0.325,0.514-0.718,0.514-1.179
	c0-0.362-0.104-0.727-0.315-1.105c-0.211-0.372-0.808-1.084-1.795-2.124c-1.042-1.094-1.732-1.926-2.059-2.483
	c-0.438-0.759-0.658-1.501-0.658-2.232c0-0.962,0.315-1.829,0.946-2.59c0.794-0.957,1.866-1.437,3.212-1.437
	C335.256,321.769,336.805,322.624,338.053,324.341z M323.897,322.161h2.861l-2.175,15.619h-2.818L323.897,322.161z M311.364,324.902
	l-1.386,10.137h0.968c1.488,0,2.564-0.122,3.23-0.37c0.936-0.354,1.687-0.96,2.252-1.815c0.57-0.857,0.852-1.915,0.852-3.177
	c0-1.03-0.199-1.896-0.597-2.593c-0.396-0.7-0.958-1.236-1.687-1.612c-0.725-0.38-1.689-0.569-2.893-0.569H311.364z
	 M308.774,322.161h2.483c2.325,0,4.058,0.275,5.192,0.823c1.135,0.546,2.056,1.409,2.767,2.584c0.709,1.177,1.066,2.532,1.066,4.069
	c0,1.576-0.378,3.027-1.135,4.348c-0.754,1.318-1.704,2.283-2.853,2.889s-2.749,0.906-4.789,0.906h-4.864L308.774,322.161z
	 M290.283,340.565l7.033-18.861h2.063l-7.033,18.861H290.283z M275.107,322.161h8.418l-0.359,2.763h-5.49l-0.441,3.241h5.51
	l-0.355,2.741h-5.53l-0.569,4.154h5.563l-0.357,2.72h-8.523L275.107,322.161z M268.818,322.161h2.944l-1.486,11.018
	c-0.195,1.463-0.443,2.491-0.739,3.096c-0.298,0.607-0.733,1.074-1.299,1.403c-0.565,0.331-1.226,0.495-1.984,0.495
	c-0.942,0-1.837-0.276-2.69-0.832c-0.855-0.55-1.543-1.338-2.077-2.356l2.323-1.413c0.41,0.639,0.82,1.098,1.222,1.385
	c0.404,0.286,0.763,0.433,1.07,0.433c0.333,0,0.591-0.129,0.776-0.381c0.186-0.258,0.323-0.813,0.414-1.669L268.818,322.161z
	 M256.043,331.689l-1.256-5.12l-2.737,5.12H256.043z M254.062,322.161h2.474l3.894,15.619h-2.846l-0.831-3.328h-6.18l-1.782,3.328
	h-3.153L254.062,322.161z M232.69,322.161h2.535l5.64,10.62l1.45-10.62h2.879l-2.134,15.619h-2.51l-5.709-10.736l-1.466,10.736
	h-2.816L232.69,322.161z M221.171,322.161h8.419l-0.359,2.763h-5.49l-0.441,3.241h5.51l-0.355,2.741h-5.529l-0.57,4.154h5.563
	l-0.356,2.72h-8.523L221.171,322.161z M217.723,324.185l-2.136,1.979c-0.461-0.527-1.027-0.938-1.689-1.226
	c-0.668-0.286-1.389-0.428-2.17-0.428c-1.09,0-2.138,0.28-3.135,0.838c-1.001,0.56-1.777,1.299-2.335,2.215
	c-0.554,0.922-0.834,1.899-0.834,2.938c0,1.413,0.489,2.587,1.468,3.527c0.976,0.935,2.231,1.403,3.764,1.403
	c1.635,0,3.052-0.471,4.249-1.415l1.734,2.274c-1.777,1.253-3.836,1.882-6.178,1.882c-1.644,0-3.043-0.313-4.196-0.937
	c-1.149-0.62-2.077-1.537-2.774-2.745c-0.7-1.204-1.046-2.513-1.046-3.921c0-1.506,0.412-2.953,1.239-4.338
	c0.824-1.382,1.943-2.474,3.354-3.27c1.409-0.794,2.946-1.194,4.615-1.194C213.993,321.769,216.015,322.575,217.723,324.185z
	 M195.584,331.689l-1.256-5.12l-2.737,5.12H195.584z M193.604,322.161h2.474l3.894,15.619h-2.845l-0.832-3.328h-6.18l-1.782,3.328
	h-3.153L193.604,322.161z M169.859,322.161h2.667l2.639,10.884l5.4-10.884h2.508l0.217,15.619h-2.742l-0.108-9.343l-4.633,9.343
	h-2.245l-2.378-9.812l-2.501,9.812h-2.804L169.859,322.161z M159.186,322.161h2.93l-1.762,12.922h4.858l-0.341,2.697h-7.817
	L159.186,322.161z M150.347,331.689l-1.255-5.12l-2.738,5.12H150.347z M148.367,322.161h2.473l3.895,15.619h-2.846l-0.832-3.328
	h-6.18l-1.782,3.328h-3.153L148.367,322.161z M124.561,340.565l7.034-18.861h2.063l-7.033,18.861H124.561z M112.075,331.689
	l-1.255-5.12l-2.738,5.12H112.075z M110.094,322.161h2.473l3.895,15.619h-2.846l-0.832-3.328h-6.18l-1.781,3.328h-3.153
	L110.094,322.161z M101.157,324.185l-2.136,1.979c-0.461-0.527-1.027-0.938-1.688-1.226c-0.668-0.286-1.39-0.428-2.17-0.428
	c-1.09,0-2.138,0.28-3.136,0.838c-1,0.56-1.777,1.299-2.335,2.215c-0.554,0.922-0.833,1.899-0.833,2.938
	c0,1.413,0.489,2.587,1.468,3.527c0.975,0.935,2.231,1.403,3.764,1.403c1.636,0,3.053-0.471,4.249-1.415l1.734,2.274
	c-1.778,1.253-3.837,1.882-6.178,1.882c-1.644,0-3.043-0.313-4.196-0.937c-1.149-0.62-2.077-1.537-2.775-2.745
	c-0.699-1.204-1.046-2.513-1.046-3.921c0-1.506,0.412-2.953,1.239-4.338c0.824-1.382,1.943-2.474,3.354-3.27
	c1.409-0.794,2.946-1.194,4.615-1.194C97.427,321.769,99.449,322.575,101.157,324.185z M81.618,322.161h2.861l-2.176,15.619h-2.818
	L81.618,322.161z M70.566,322.161h9.53l-0.341,2.784h-3.238l-1.756,12.835h-2.911l1.754-12.835h-3.401L70.566,322.161z
	 M69.238,324.341l-2.14,1.888c-0.881-1.146-1.705-1.719-2.461-1.719c-0.378,0-0.693,0.112-0.94,0.333
	c-0.25,0.227-0.373,0.495-0.373,0.806c0,0.29,0.112,0.613,0.341,0.968c0.229,0.354,0.916,1.136,2.069,2.35
	c0.609,0.646,1.013,1.104,1.204,1.371c0.465,0.623,0.794,1.206,0.997,1.748c0.203,0.544,0.306,1.094,0.306,1.653
	c0,1.254-0.447,2.31-1.338,3.157c-0.896,0.852-2.038,1.277-3.435,1.277c-2.128,0-3.86-1.009-5.198-3.029l2.254-1.812
	c0.911,1.384,1.89,2.078,2.948,2.078c0.504,0,0.928-0.164,1.273-0.491c0.345-0.325,0.515-0.718,0.515-1.179
	c0-0.362-0.105-0.727-0.315-1.105c-0.211-0.372-0.808-1.084-1.795-2.124c-1.042-1.094-1.732-1.926-2.06-2.483
	c-0.437-0.759-0.658-1.501-0.658-2.232c0-0.962,0.315-1.829,0.946-2.59c0.794-0.957,1.866-1.437,3.212-1.437
	C66.442,321.769,67.991,322.624,69.238,324.341z M57.856,316.462h3.427l-4.468,4.153h-2.081L57.856,316.462z M55.083,322.161h2.861
	l-2.175,15.619h-2.818L55.083,322.161z M50.442,325.079l-2.448,1.585c-0.711-0.805-1.393-1.368-2.051-1.684
	c-0.656-0.314-1.403-0.471-2.241-0.471c-1.807,0-3.275,0.726-4.41,2.176c-0.898,1.153-1.348,2.434-1.348,3.843
	c0,1.386,0.461,2.55,1.385,3.492c0.925,0.94,2.063,1.411,3.416,1.411c1.007,0,1.921-0.247,2.747-0.737
	c0.824-0.488,1.498-1.222,2.024-2.199h-4.887l0.362-2.763h7.918c-0.113,2.583-0.924,4.641-2.43,6.158
	c-1.503,1.52-3.425,2.282-5.756,2.282c-2.535,0-4.533-0.879-5.983-2.633c-1.17-1.411-1.754-3.086-1.754-5.033
	c0-2.371,0.855-4.418,2.566-6.148c1.713-1.727,3.752-2.59,6.117-2.59c0.881,0,1.736,0.128,2.573,0.385
	c0.838,0.254,1.592,0.612,2.263,1.073C49.181,323.688,49.825,324.303,50.442,325.079z M25.726,324.531
	c-1.121,0-2.144,0.272-3.072,0.813c-0.924,0.544-1.671,1.32-2.236,2.339c-0.57,1.015-0.852,2.067-0.852,3.147
	c0,1.283,0.394,2.371,1.183,3.264c0.786,0.891,1.917,1.338,3.393,1.338c1.707,0,3.161-0.604,4.357-1.806
	c1.192-1.204,1.792-2.666,1.792-4.389c0-1.425-0.42-2.562-1.262-3.419C28.187,324.959,27.087,324.531,25.726,324.531z
	 M25.84,321.769c2.148,0,3.919,0.69,5.317,2.071c1.395,1.382,2.091,3.132,2.091,5.254c0,1.628-0.412,3.165-1.236,4.604
	c-0.828,1.44-1.925,2.546-3.297,3.318c-1.37,0.772-2.942,1.157-4.724,1.157c-2.223,0-3.999-0.66-5.327-1.977
	c-1.33-1.316-1.992-3.049-1.992-5.199c0-2.443,0.792-4.544,2.381-6.298C20.823,322.744,23.085,321.769,25.84,321.769z
	 M9.123,322.161h2.931l-1.762,12.922h4.858l-0.341,2.697H6.991L9.123,322.161z"/>
</svg>
